<svg width="75" height="65" viewBox="0 0 75 65" fill="none" xmlns="http://www.w3.org/2000/svg">
  <path
    d="M74.5245 22.3591C74.3494 21.0783 74.0672 19.8363 73.6585 18.6087C72.3059 14.52 70.0192 10.7358 66.9638 7.6765C63.9083 4.61722 60.0501 2.28289 55.8464 1.16647C51.487 0.00655916 46.6897 0.0548889 42.3839 1.43229C38.1997 2.77102 34.4533 5.3035 31.7336 8.73975C30.4102 10.412 29.2522 12.1615 28.3083 14.0754C27.3547 16.0134 26.5519 18.0384 25.8951 20.0924C25.3015 21.9531 24.8199 23.8525 24.4063 25.7615C23.9587 27.8203 23.657 29.9034 23.1997 31.9574C22.9856 32.924 22.718 33.8809 22.3629 34.8088C22.0223 35.5386 21.6185 36.2249 21.1465 36.8773C20.5724 37.5685 19.9302 38.2016 19.2296 38.7767C18.31 39.4388 17.3272 39.9801 16.2909 40.4393C13.43 41.5895 10.3989 42.3869 7.86404 44.2041C5.35837 46.002 3.22247 48.3025 1.82124 51.0573C1.04278 52.5845 0.424877 54.2084 0.103762 55.8951C-0.0519301 56.7215 -0.0227378 57.5238 0.415146 58.2729C0.78978 58.9109 1.52932 59.5198 2.26885 59.689C2.44887 59.7277 2.63376 59.7567 2.81864 59.776C2.92081 59.9693 3.02299 60.1675 3.13489 60.356C3.44141 60.8682 3.82091 61.3419 4.20041 61.7962C4.42422 62.062 4.66748 62.3085 4.93508 62.526C5.84977 63.2751 6.80825 63.8889 7.97107 64.1933C9.11444 64.493 10.3016 64.4882 11.445 64.2175C11.625 64.174 11.8001 64.1208 11.9704 64.0532C12.3548 63.9034 12.7489 63.7535 13.1089 63.5505C13.4738 63.3427 13.8047 63.0624 14.1306 62.8014C14.2815 62.6806 14.4177 62.5405 14.5442 62.3955C14.8459 62.1152 15.0599 61.7865 15.1864 61.4047C15.381 61.0374 15.4686 60.6411 15.454 60.2158C15.454 60.2013 15.454 60.1868 15.454 60.1723C15.4735 60.037 15.4832 59.892 15.4832 59.7518C15.4735 56.4847 15.4735 53.2031 15.8773 49.9554C16.0281 48.9453 16.2228 47.9352 16.4709 46.9444C18.1008 46.3548 19.7258 45.7459 21.2195 44.8614C23.5305 43.4937 25.5302 41.5895 26.9655 39.3228C28.4543 36.9643 29.1014 34.2385 29.5879 31.5321C29.9772 29.3717 30.3907 27.2162 30.9308 25.0897C31.4903 22.8714 32.1666 20.6772 33.0375 18.5555C33.9035 16.5837 34.9496 14.6891 36.2438 12.9589C37.1779 11.8039 38.2288 10.7454 39.3868 9.80784C40.4572 9.02489 41.6103 8.35795 42.8218 7.81665C44.2181 7.27053 45.668 6.88389 47.1471 6.6519C48.7527 6.47308 50.3728 6.47308 51.9784 6.65674C53.511 6.89355 55.0095 7.29469 56.4497 7.86498C57.9142 8.51743 59.3008 9.32938 60.5901 10.2815C61.9621 11.3737 63.2028 12.6158 64.2975 13.9787C65.4166 15.4721 66.3653 17.0863 67.1243 18.7923C67.6984 20.2132 68.1606 21.6921 68.4136 23.2049C68.4866 23.9346 68.4963 24.6644 68.4282 25.399C68.2482 26.4091 67.9417 27.3902 67.5573 28.3423C66.7448 30.1837 65.762 31.9912 64.5603 33.6103C63.6358 34.7508 62.5898 35.7851 61.4415 36.6985C60.7215 37.235 59.9625 37.7473 59.1548 38.1436C58.9553 38.2113 58.7559 38.2692 58.5515 38.3176C58.4785 38.3224 58.4007 38.3224 58.3277 38.3224C58.2596 38.3031 58.1866 38.2837 58.1185 38.2644C58.1039 38.2547 58.0844 38.2451 58.0698 38.2354C58.0455 38.1484 58.0261 38.0663 58.0066 37.9793C57.9628 37.3461 57.9969 36.7034 58.065 36.0702C58.4883 33.4604 59.4857 31.0004 60.5123 28.5598C60.8869 27.7768 61.2323 26.9794 61.5535 26.1723C61.7627 25.6455 61.9573 25.109 62.1422 24.5726C62.3903 23.838 62.2151 22.852 61.8308 22.1948C61.7432 22.0498 61.641 21.9048 61.5194 21.7646C61.3686 21.4505 61.1691 21.1508 60.9161 20.8609C59.3105 19.034 56.9167 17.8016 54.5084 17.4391C53.2483 17.2506 52.0222 17.1588 50.7523 17.3135C49.4727 17.4681 48.2369 17.6904 47.0352 18.1592C45.8383 18.6232 44.6803 19.1548 43.644 19.9136C42.5055 20.7497 41.4303 21.6583 40.4815 22.7022C38.7592 24.5871 37.3385 26.7378 36.2876 29.0528C35.6988 30.3528 35.1685 31.6819 34.7355 33.04C34.3317 34.3159 34.0106 35.6159 34.03 36.9643C34.0544 38.4287 34.3657 40.0478 35.1734 41.2995C36.1805 42.8606 37.7423 43.9383 39.4744 44.5618C40.1653 44.8131 40.9437 44.9146 41.6735 44.9533C42.3693 44.9919 43.0991 44.8904 43.7754 44.7309C44.4517 44.5763 45.0939 44.2621 45.7167 43.9625C46.2421 43.7063 46.7627 43.4309 47.2736 43.1409C48.9765 42.1743 50.5869 41.0192 52.0757 39.7385C52.2898 40.5407 52.645 41.3044 53.1753 41.9906C54.0608 43.1264 55.3258 43.9383 56.7416 44.2718C57.8071 44.5231 58.7656 44.4941 59.8311 44.325C60.6096 44.1993 61.3199 43.8997 62.0351 43.5807C62.9839 43.1554 63.8694 42.5464 64.6965 41.9278C65.7085 41.1739 66.6913 40.3861 67.5817 39.492C69.2018 37.8681 70.5641 35.9832 71.654 33.9727C72.846 31.7689 74.0283 29.4249 74.4418 26.9359C74.5732 26.1385 74.6851 25.3265 74.6948 24.5146C74.7046 23.7848 74.6218 23.0744 74.5245 22.3591ZM46.9233 35.9929C45.5561 37.0127 44.0819 37.9454 42.5298 38.6655C42.3936 38.709 42.2574 38.7477 42.1163 38.7815C41.98 38.7864 41.8487 38.7864 41.7125 38.7815C41.5665 38.7477 41.4157 38.709 41.2746 38.6607C41.1043 38.5737 40.9389 38.4771 40.7832 38.3707C40.6761 38.2789 40.5788 38.1822 40.4815 38.0856C40.4621 38.0518 40.4426 38.0179 40.4231 37.9793C40.3599 37.7811 40.3064 37.5781 40.2674 37.3703C40.2431 37.0175 40.2431 36.6647 40.2674 36.3071C40.3988 35.6643 40.608 35.0311 40.8124 34.4077C41.0362 33.7214 41.2843 33.04 41.5568 32.3682C42.2525 30.8023 43.0942 29.3089 44.1159 27.9315C44.9479 26.9117 45.8723 25.9741 46.8941 25.1429C47.4877 24.7176 48.125 24.3551 48.7867 24.0506C49.5311 23.7703 50.2998 23.5625 51.0832 23.4272C51.774 23.3595 52.4698 23.3547 53.1607 23.4175C53.6861 23.5093 54.2019 23.6495 54.7079 23.8283C55.0193 23.9781 55.3209 24.1473 55.6128 24.3358C55.4279 24.7949 55.2382 25.2492 55.0484 25.7035C54.1192 27.6609 52.9904 29.5216 51.6816 31.2518C50.2755 33.0061 48.6845 34.601 46.9233 35.9929Z"
    fill="#FAFAFA" />
</svg>