<svg xmlns="http://www.w3.org/2000/svg" viewBox="0 -0.5 14 58" width="36" height="150" shape-rendering="crispEdges">
<path stroke="#000000" d="M0 0h14M0 1h14M0 2h14M0 3h14M0 4h4M5 4h4M10 4h4M0 5h4M5 5h4M10 5h4M0 6h4M5 6h4M10 6h4M0 7h4M5 7h4M10 7h4M0 8h4M5 8h4M10 8h4M0 10h14M0 11h14M0 12h14M0 13h14M5 14h3M11 14h3M2 15h6M11 15h3M0 16h8M11 16h3M0 17h14M0 18h14M0 19h4M6 19h7M0 20h2M7 20h5M0 22h14M0 23h14M0 24h14M0 25h14M5 26h3M11 26h3M2 27h6M11 27h3M0 28h8M11 28h3M0 29h14M0 30h14M0 31h4M6 31h7M0 32h2M7 32h5M4 34h6M2 35h10M1 36h12M0 37h14M0 38h14M0 39h4M10 39h4M0 40h4M10 40h4M0 41h14M0 42h14M0 43h13M1 44h12M3 45h8M0 47h14M0 48h14M0 49h14M0 50h14M5 51h3M11 51h3M2 52h6M11 52h3M0 53h8M11 53h3M0 54h14M0 55h14M0 56h4M6 56h7M0 57h2M7 57h5" />
</svg>
