<svg xmlns="http://www.w3.org/2000/svg" viewBox="0 -0.5 31 85" width="55" height="150" shape-rendering="crispEdges">
<path stroke="#000000" d="M5 0h20M4 1h2M14 1h2M24 1h2M3 2h2M14 2h2M25 2h2M2 3h2M14 3h2M26 3h2M2 4h1M13 4h3M27 4h1M2 5h1M13 5h2M27 5h1M2 6h1M12 6h3M27 6h1M2 7h1M11 7h3M27 7h1M2 8h27M2 9h28M2 10h29M2 11h2M10 11h2M26 11h2M2 12h2M10 12h2M26 12h2M2 13h2M10 13h2M26 13h2M2 14h2M10 14h2M26 14h2M2 15h2M10 15h2M17 15h3M26 15h2M2 16h2M10 16h2M17 16h3M26 16h2M2 17h2M9 17h4M17 17h3M24 17h2M2 18h2M9 18h4M17 18h3M24 18h2M2 19h2M9 19h4M17 19h3M24 19h2M2 20h2M9 20h4M17 20h3M24 20h2M3 21h3M9 21h4M17 21h3M26 21h2M4 22h2M9 22h4M26 22h2M4 23h2M9 23h1M12 23h1M26 23h2M4 24h2M26 24h2M6 25h2M24 25h2M6 26h2M24 26h2M6 27h2M22 27h2M6 28h2M22 28h2M4 29h4M14 29h8M4 30h8M14 30h8M4 31h14M4 32h14M2 33h18M2 34h18M2 35h18M2 36h18M0 37h22M0 38h3M9 38h13M0 39h6M7 39h10M19 39h3M0 40h6M7 40h9M17 40h2M20 40h2M0 41h3M9 41h7M17 41h2M20 41h2M0 42h17M19 42h3M0 43h3M9 43h13M0 44h22M0 45h3M4 45h18M0 46h4M9 46h13M0 47h4M5 47h3M9 47h13M0 48h4M5 48h3M9 48h13M0 49h4M9 49h13M0 50h22M0 51h22M0 52h22M0 53h8M11 53h11M0 54h4M13 54h9M2 55h1M13 55h9M2 56h1M11 56h11M2 57h1M11 57h11M2 58h3M9 58h13M4 59h1M9 59h13M4 60h1M8 60h14M4 61h5M10 61h12M4 62h1M10 62h12M4 63h5M10 63h12M4 64h18M4 65h1M10 65h12M4 66h1M6 66h3M10 66h12M2 67h3M6 67h3M10 67h10M2 68h3M10 68h10M2 69h18M2 70h3M10 70h10M2 71h5M8 71h1M10 71h10M2 72h4M8 72h1M10 72h10M0 73h5M6 73h1M10 73h10M0 74h20M0 75h22M0 76h22M0 77h24M0 78h24M0 79h25M0 80h25M0 81h25M0 82h25M0 83h25M0 84h15" />
<path stroke="#ffffff" d="M6 1h8M16 1h8M5 2h9M16 2h9M4 3h10M16 3h10M3 4h10M16 4h11M3 5h10M15 5h12M3 6h9M15 6h12M3 7h8M14 7h13M4 11h6M12 11h14M4 12h6M12 12h14M4 13h6M12 13h14M4 14h6M12 14h14M4 15h6M12 15h5M20 15h6M4 16h6M12 16h5M20 16h6M4 17h5M13 17h4M20 17h4M4 18h5M13 18h4M20 18h4M4 19h5M13 19h4M20 19h4M4 20h5M13 20h4M20 20h4M6 21h3M13 21h4M20 21h6M6 22h3M13 22h5M20 22h6M6 23h3M10 23h2M13 23h13M6 24h20M8 25h16M8 26h16M8 27h14M8 28h14M8 29h6M12 30h2M3 38h6M6 39h1M17 39h2M6 40h1M16 40h1M19 40h1M3 41h6M16 41h1M19 41h1M17 42h2M3 43h6M3 45h1M4 46h5M4 47h1M8 47h1M4 48h1M8 48h1M4 49h5M8 53h3M4 54h9M3 55h10M3 56h8M3 57h8M5 58h4M5 59h4M5 60h3M9 61h1M5 62h5M9 63h1M5 65h5M5 66h1M9 66h1M5 67h1M9 67h1M5 68h5M5 70h5M7 71h1M9 71h1M6 72h2M9 72h1M5 73h1M7 73h3" />
<path stroke="#d6effa" d="M18 22h2" />
</svg>
