<svg xmlns="http://www.w3.org/2000/svg" viewBox="0 -0.5 132 63" width="300" height="143" shape-rendering="crispEdges">
<path stroke="#000000" d="M0 0h132M0 1h7M12 1h6M24 1h6M36 1h5M47 1h5M58 1h6M69 1h6M81 1h6M91 1h6M103 1h6M114 1h6M126 1h6M0 2h7M12 2h6M24 2h6M36 2h5M47 2h5M58 2h6M69 2h6M81 2h6M91 2h6M103 2h6M114 2h6M126 2h6M0 3h7M12 3h6M24 3h6M36 3h5M47 3h5M58 3h6M69 3h6M81 3h6M91 3h6M103 3h6M114 3h6M126 3h6M0 4h7M12 4h6M24 4h6M36 4h5M47 4h5M58 4h6M69 4h6M81 4h6M91 4h6M103 4h6M114 4h6M126 4h6M0 5h7M12 5h6M24 5h6M36 5h5M47 5h5M58 5h6M69 5h6M81 5h6M91 5h6M103 5h6M114 5h6M126 5h6M0 6h7M12 6h6M24 6h6M36 6h5M47 6h5M58 6h6M69 6h6M81 6h6M91 6h6M103 6h6M114 6h6M126 6h6M0 7h1M131 7h1M0 8h1M131 8h1M0 9h1M131 9h1M0 10h1M131 10h1M0 11h1M42 11h4M48 11h4M72 11h1M83 11h1M131 11h1M0 12h1M41 12h1M47 12h1M52 12h1M61 12h2M73 12h2M82 12h1M89 12h2M131 12h1M0 13h1M40 13h1M47 13h1M53 13h1M62 13h1M74 13h1M89 13h2M131 13h1M0 14h1M40 14h1M47 14h1M53 14h1M60 14h1M62 14h1M74 14h1M89 14h2M131 14h1M0 15h1M47 15h1M63 15h1M75 15h1M80 15h1M89 15h2M131 15h1M0 16h1M47 16h1M59 16h1M63 16h1M75 16h1M89 16h2M131 16h1M0 17h1M47 17h1M63 17h1M76 17h1M79 17h1M89 17h2M131 17h1M0 18h1M47 18h1M64 18h1M76 18h3M89 18h2M131 18h1M0 19h1M47 19h1M58 19h1M64 19h1M77 19h2M89 19h2M131 19h1M0 20h1M47 20h1M64 20h1M77 20h2M89 20h2M131 20h1M0 21h1M47 21h1M64 21h2M79 21h1M89 21h2M131 21h1M0 22h1M47 22h1M57 22h9M79 22h1M89 22h2M131 22h1M0 23h1M47 23h1M65 23h1M75 23h1M80 23h1M89 23h2M131 23h1M0 24h1M47 24h1M65 24h1M80 24h1M89 24h2M131 24h1M0 25h1M47 25h1M56 25h1M66 25h1M81 25h1M89 25h2M131 25h1M0 26h1M47 26h1M56 26h1M66 26h1M73 26h1M81 26h2M89 26h2M131 26h1M0 27h1M46 27h2M55 27h2M66 27h2M73 27h1M81 27h2M89 27h2M131 27h1M0 28h1M131 28h1M0 29h1M131 29h1M0 30h1M131 30h1M0 31h1M131 31h1M0 32h1M50 32h2M55 32h2M60 32h2M65 32h5M73 32h2M77 32h2M81 32h3M131 32h1M0 33h1M58 33h1M66 33h1M131 33h1M0 34h1M63 34h1M66 34h1M131 34h1M0 35h1M63 35h1M66 35h1M74 35h2M131 35h1M0 36h1M52 36h1M63 36h1M66 36h1M81 36h4M131 36h1M0 37h1M53 37h1M58 37h1M66 37h1M131 37h1M0 38h1M53 38h1M60 38h2M65 38h4M73 38h2M76 38h6M84 38h2M131 38h1M0 39h1M131 39h1M0 40h1M131 40h1M0 41h1M131 41h1M0 42h11M21 42h10M41 42h10M61 42h10M81 42h10M101 42h10M121 42h11M0 43h11M21 43h10M41 43h10M61 43h10M81 43h10M101 43h10M121 43h11M0 44h11M21 44h10M41 44h10M61 44h10M81 44h10M101 44h10M121 44h11M0 45h11M21 45h10M41 45h10M61 45h10M81 45h10M101 45h10M121 45h11M0 46h11M21 46h10M41 46h10M61 46h10M81 46h10M101 46h10M121 46h11M0 47h11M21 47h10M41 47h10M61 47h10M81 47h10M101 47h10M121 47h11M0 48h11M21 48h10M41 48h10M61 48h10M81 48h10M101 48h10M121 48h11M0 49h11M21 49h10M41 49h10M61 49h10M81 49h10M101 49h10M121 49h11M0 50h11M21 50h10M41 50h10M61 50h10M81 50h10M101 50h10M121 50h11M0 51h11M21 51h10M41 51h10M61 51h10M81 51h10M101 51h10M121 51h11M0 52h1M11 52h10M31 52h10M51 52h10M71 52h10M91 52h10M111 52h10M131 52h1M0 53h1M11 53h10M31 53h10M51 53h10M71 53h10M91 53h10M111 53h10M131 53h1M0 54h1M11 54h10M31 54h10M51 54h10M71 54h10M91 54h10M111 54h10M131 54h1M0 55h1M11 55h10M31 55h10M51 55h10M71 55h10M91 55h10M111 55h10M131 55h1M0 56h1M11 56h10M31 56h10M51 56h10M71 56h10M91 56h10M111 56h10M131 56h1M0 57h1M11 57h10M31 57h10M51 57h10M71 57h10M91 57h10M111 57h10M131 57h1M0 58h1M11 58h10M31 58h10M51 58h10M71 58h10M91 58h10M111 58h10M131 58h1M0 59h1M11 59h10M31 59h10M51 59h10M71 59h10M91 59h10M111 59h10M131 59h1M0 60h1M11 60h10M31 60h10M51 60h10M71 60h10M91 60h10M111 60h10M131 60h1M0 61h1M11 61h10M31 61h10M51 61h10M71 61h10M91 61h10M111 61h10M131 61h1M0 62h132" />
<path stroke="#ffffff" d="M7 1h5M18 1h5M30 1h6M41 1h4M46 1h1M52 1h6M64 1h4M75 1h6M87 1h3M97 1h6M109 1h5M120 1h6M7 2h5M18 2h5M30 2h6M41 2h4M46 2h1M52 2h6M64 2h4M75 2h6M87 2h3M97 2h6M109 2h5M120 2h6M7 3h5M18 3h5M30 3h6M41 3h4M46 3h1M52 3h6M64 3h4M75 3h6M87 3h3M97 3h6M109 3h5M120 3h6M7 4h5M18 4h5M30 4h6M41 4h4M46 4h1M52 4h6M64 4h4M75 4h6M87 4h3M97 4h6M109 4h5M120 4h6M7 5h5M18 5h5M30 5h6M41 5h4M46 5h1M52 5h6M64 5h4M75 5h6M87 5h3M97 5h6M109 5h5M120 5h6M7 6h5M18 6h5M30 6h6M41 6h4M46 6h1M52 6h6M64 6h4M75 6h6M87 6h3M97 6h6M109 6h5M120 6h6M1 7h130M1 8h130M1 9h130M1 10h130M1 11h39M55 11h5M64 11h6M77 11h2M86 11h1M93 11h38M1 12h39M55 12h5M64 12h7M76 12h4M85 12h2M93 12h38M1 13h39M43 13h2M49 13h2M55 13h4M65 13h7M76 13h4M84 13h4M92 13h39M1 14h39M42 14h3M49 14h3M55 14h4M65 14h7M77 14h3M83 14h5M92 14h39M1 15h39M42 15h3M49 15h3M55 15h3M65 15h8M78 15h1M82 15h6M92 15h39M1 16h44M49 16h9M61 16h1M66 16h8M82 16h6M92 16h39M1 17h44M49 17h8M61 17h1M66 17h8M81 17h7M92 17h39M1 18h44M49 18h8M61 18h1M66 18h9M80 18h8M92 18h39M1 19h44M49 19h8M60 19h2M67 19h8M80 19h8M92 19h39M1 20h44M49 20h8M60 20h3M67 20h9M80 20h8M92 20h39M1 21h44M49 21h7M67 21h8M81 21h7M92 21h39M1 22h44M49 22h7M67 22h7M82 22h6M92 22h39M1 23h44M49 23h6M68 23h6M77 23h1M82 23h6M92 23h39M1 24h44M49 24h6M58 24h6M68 24h5M76 24h3M83 24h5M92 24h39M1 25h44M49 25h6M58 25h6M68 25h4M76 25h3M84 25h4M92 25h39M1 26h44M49 26h5M58 26h6M69 26h3M75 26h5M84 26h4M92 26h39M1 27h43M50 27h3M58 27h6M70 27h1M75 27h5M85 27h2M93 27h38M1 28h43M51 28h2M59 28h4M76 28h3M86 28h1M93 28h38M1 29h130M1 30h130M1 31h130M1 32h48M53 32h1M57 32h1M64 32h1M71 32h1M85 32h46M1 33h49M52 33h2M56 33h1M60 33h1M64 33h1M68 33h1M72 33h1M75 33h1M79 33h2M84 33h47M1 34h50M53 34h1M56 34h1M59 34h3M68 34h2M72 34h1M78 34h3M85 34h46M1 35h11M15 35h1M23 35h10M35 35h16M56 35h1M59 35h4M68 35h2M72 35h1M77 35h3M85 35h46M1 36h11M23 36h3M35 36h16M55 36h2M59 36h3M68 36h2M72 36h1M78 36h2M86 36h45M1 37h11M23 37h3M35 37h17M55 37h2M60 37h1M64 37h1M68 37h1M72 37h1M75 37h1M79 37h1M82 37h2M86 37h15M102 37h1M104 37h6M111 37h2M115 37h1M117 37h6M126 37h5M1 38h11M19 38h1M24 38h3M31 38h1M35 38h17M55 38h3M64 38h1M71 38h1M82 38h1M87 38h13M108 38h1M115 38h1M117 38h2M122 38h1M126 38h5M1 39h11M19 39h1M24 39h3M29 39h1M37 39h63M105 39h1M108 39h1M115 39h1M117 39h2M122 39h1M126 39h5M1 40h12M15 40h2M18 40h2M21 40h1M23 40h5M29 40h2M32 40h2M35 40h1M37 40h64M108 40h1M115 40h1M122 40h1M128 40h3M1 41h100M102 41h1M104 41h2M108 41h2M115 41h1M118 41h5M128 41h3M11 42h10M31 42h10M51 42h10M71 42h10M91 42h10M111 42h10M11 43h10M31 43h10M51 43h10M71 43h10M91 43h10M111 43h10M11 44h10M31 44h10M51 44h10M71 44h10M91 44h10M111 44h10M11 45h10M31 45h10M51 45h10M71 45h10M91 45h10M111 45h10M11 46h10M31 46h10M51 46h10M71 46h10M91 46h10M111 46h10M11 47h10M31 47h10M51 47h10M71 47h10M91 47h10M111 47h10M11 48h10M31 48h10M51 48h10M71 48h10M91 48h10M111 48h10M11 49h10M31 49h10M51 49h10M71 49h10M91 49h10M111 49h10M11 50h10M31 50h10M51 50h10M71 50h10M91 50h10M111 50h10M11 51h10M31 51h10M51 51h10M71 51h10M91 51h10M111 51h10M1 52h10M21 52h10M41 52h10M61 52h10M81 52h10M101 52h10M121 52h10M1 53h10M21 53h10M41 53h10M61 53h10M81 53h10M101 53h10M121 53h10M1 54h10M21 54h10M41 54h10M61 54h10M81 54h10M101 54h10M121 54h10M1 55h10M21 55h10M41 55h10M61 55h10M81 55h10M101 55h10M121 55h10M1 56h10M21 56h10M41 56h10M61 56h10M81 56h10M101 56h10M121 56h10M1 57h10M21 57h10M41 57h10M61 57h10M81 57h10M101 57h10M121 57h10M1 58h10M21 58h10M41 58h10M61 58h10M81 58h10M101 58h10M121 58h10M1 59h10M21 59h10M41 59h10M61 59h10M81 59h10M101 59h10M121 59h10M1 60h10M21 60h10M41 60h10M61 60h10M81 60h10M101 60h10M121 60h10M1 61h10M21 61h10M41 61h10M61 61h10M81 61h10M101 61h10M121 61h10" />
<path stroke="#f0f0f0" d="M23 1h1M45 1h1M23 2h1M45 2h1M23 3h1M45 3h1M23 4h1M45 4h1M23 5h1M45 5h1M23 6h1M45 6h1" />
<path stroke="#e2e2e2" d="M68 1h1M90 1h1M68 2h1M90 2h1M68 3h1M90 3h1M68 4h1M90 4h1M68 5h1M90 5h1M68 6h1M90 6h1" />
<path stroke="#090909" d="M40 11h1M62 11h1M41 13h1M46 26h1M47 28h1M55 28h2M66 28h1M73 28h1M81 28h2M89 28h3" />
<path stroke="#020202" d="M41 11h1M47 11h1M52 11h1M73 11h2M81 11h2M89 11h2M40 12h1M53 12h1" />
<path stroke="#010101" d="M46 11h1M46 12h1M66 24h1" />
<path stroke="#0a0a0a" d="M53 11h1M61 13h1M81 13h1M65 27h1M45 28h1" />
<path stroke="#b4b4b4" d="M54 11h1" />
<path stroke="#b8b8b8" d="M60 11h1" />
<path stroke="#0b0b0b" d="M61 11h1M58 18h1M71 28h1" />
<path stroke="#c0c0c0" d="M63 11h1" />
<path stroke="#e3e3e3" d="M70 11h1M62 18h1" />
<path stroke="#1b1b1b" d="M71 11h1M64 28h1" />
<path stroke="#141414" d="M75 11h1M72 12h1M52 13h1M74 15h1M74 28h1" />
<path stroke="#959595" d="M76 11h1" />
<path stroke="#f6f6f6" d="M79 11h1M57 18h1" />
<path stroke="#3f3f3f" d="M80 11h1" />
<path stroke="#363636" d="M84 11h1M59 15h1" />
<path stroke="#f5f5f5" d="M85 11h1M74 17h1M62 19h1M87 27h1" />
<path stroke="#606060" d="M87 11h1M75 24h1" />
<path stroke="#070707" d="M88 11h1M76 16h1M59 17h1M74 24h1M46 28h1M48 28h1M65 28h1" />
<path stroke="#050505" d="M91 11h1" />
<path stroke="#5f5f5f" d="M92 11h1M87 28h1" />
<path stroke="#060606" d="M42 12h1M81 14h1M63 18h1M57 23h1M83 27h1M54 28h1M67 28h1" />
<path stroke="#525252" d="M43 12h1" />
<path stroke="#575757" d="M44 12h1M49 12h2M59 18h1M91 27h1M62 33h2M77 33h1M82 33h1M57 34h1M71 34h1M76 34h1M81 34h1M83 34h1M14 36h1M54 36h1M21 37h1M52 37h1M62 37h2M84 37h1M123 38h1M28 39h1" />
<path stroke="#464646" d="M45 12h1" />
<path stroke="#353535" d="M48 12h1" />
<path stroke="#202020" d="M51 12h1" />
<path stroke="#b1b1b1" d="M54 12h1M54 13h1M91 15h1M91 16h1M91 17h1M91 18h1M91 19h1M91 20h1M91 21h1M91 22h1M91 23h1M91 24h1" />
<path stroke="#646464" d="M60 12h1M65 19h1M76 19h1M79 24h1" />
<path stroke="#7f7f7f" d="M63 12h1M76 20h1" />
<path stroke="#c8c8c8" d="M71 12h1" />
<path stroke="#989898" d="M75 12h1M70 28h1" />
<path stroke="#dedede" d="M80 12h1M80 13h1M65 17h1" />
<path stroke="#0e0e0e" d="M81 12h1M46 25h1M74 25h1M57 28h1M88 28h1" />
<path stroke="#4a4a4a" d="M83 12h1" />
<path stroke="#dbdbdb" d="M84 12h1M45 26h1" />
<path stroke="#fbfbfb" d="M87 12h1M66 19h1" />
<path stroke="#6e6e6e" d="M88 12h1" />
<path stroke="#686868" d="M91 12h1" />
<path stroke="#fcfcfc" d="M92 12h1M44 27h1M69 27h1" />
<path stroke="#a0a0a0" d="M42 13h1M59 21h1M83 26h1" />
<path stroke="#e6e6e6" d="M45 13h1M81 22h1" />
<path stroke="#101010" d="M46 13h1M63 14h1" />
<path stroke="#b3b3b3" d="M48 13h1M91 14h1M76 23h1M91 25h1" />
<path stroke="#dadada" d="M51 13h1" />
<path stroke="#e1e1e1" d="M59 13h1M76 14h1M75 25h1" />
<path stroke="#1f1f1f" d="M60 13h1" />
<path stroke="#3d3d3d" d="M63 13h1" />
<path stroke="#f4f4f4" d="M64 13h1M59 20h1M92 27h1M63 32h1M78 33h1M77 34h1M33 35h1M53 35h1M82 35h1M28 36h1M85 36h1M78 37h1M101 37h1M116 37h1M125 37h1M54 38h1M63 38h1M105 38h1M112 38h1M119 38h1M100 39h1M14 40h1M28 40h1M36 40h1M105 40h1M118 40h1M101 41h1M106 41h2M114 41h1M123 41h1M127 41h1" />
<path stroke="#acacac" d="M72 13h1" />
<path stroke="#030303" d="M73 13h1M57 21h1M78 21h1M79 23h1M56 24h1M72 27h1" />
<path stroke="#818181" d="M75 13h1M81 23h1" />
<path stroke="#303030" d="M82 13h1" />
<path stroke="#efefef" d="M83 13h1M66 20h1" />
<path stroke="#bfbfbf" d="M88 13h1" />
<path stroke="#b6b6b6" d="M91 13h1M57 25h1M91 26h1" />
<path stroke="#434343" d="M41 14h1" />
<path stroke="#d3d3d3" d="M45 14h1M45 15h1M88 15h1M45 16h1M45 17h1M45 18h1M45 19h1M45 20h1M45 21h1M45 22h1M45 23h1M45 24h1M88 24h1" />
<path stroke="#0d0d0d" d="M46 14h1M46 15h1M46 16h1M46 17h1M46 18h1M46 19h1M46 20h1M46 21h1M76 21h1M46 22h1M46 23h1M46 24h1M68 28h1" />
<path stroke="#a5a5a5" d="M48 14h1M48 15h1M48 16h1M48 17h1M48 18h1M48 19h1M48 20h1M48 21h1M48 22h1M48 23h1M48 24h1" />
<path stroke="#808080" d="M52 14h1" />
<path stroke="#afafaf" d="M54 14h1" />
<path stroke="#969696" d="M59 14h1M69 28h1" />
<path stroke="#7e7e7e" d="M61 14h1" />
<path stroke="#cacaca" d="M64 14h1" />
<path stroke="#fdfdfd" d="M72 14h1" />
<path stroke="#5d5d5d" d="M73 14h1" />
<path stroke="#131313" d="M75 14h1M65 20h1" />
<path stroke="#666666" d="M80 14h1" />
<path stroke="#c2c2c2" d="M82 14h1M79 15h1M67 24h1" />
<path stroke="#d1d1d1" d="M88 14h1M82 24h1M54 33h1M69 33h1M12 35h1M27 36h1M30 36h1M124 37h1M17 38h1M107 38h1M120 38h1M103 39h1M110 39h1M119 39h1M20 40h1M117 41h1M126 41h1" />
<path stroke="#171717" d="M40 15h1M62 15h1M55 26h1" />
<path stroke="#898989" d="M41 15h1" />
<path stroke="#d7d7d7" d="M52 15h1" />
<path stroke="#292929" d="M53 15h1M75 22h1M80 22h1" />
<path stroke="#b7b7b7" d="M54 15h1M49 32h1M58 32h1M50 33h1M71 33h1M73 33h1M73 34h1M64 35h1M70 35h1M73 35h1M15 36h1M73 36h1M26 37h1M69 37h1M71 37h1M73 37h1M52 38h1M58 38h1M86 38h1M23 39h1M35 39h1" />
<path stroke="#f1f1f1" d="M58 15h1M55 23h1" />
<path stroke="#3e3e3e" d="M60 15h1" />
<path stroke="#e4e4e4" d="M61 15h1" />
<path stroke="#949494" d="M64 15h1" />
<path stroke="#d2d2d2" d="M73 15h1M88 16h1M88 17h1M88 18h1M88 19h1M88 20h1M88 21h1M88 22h1M88 23h1M64 25h1" />
<path stroke="#626262" d="M76 15h1" />
<path stroke="#fefefe" d="M77 15h1M57 17h1M75 19h1M83 25h1" />
<path stroke="#757575" d="M81 15h1" />
<path stroke="#cccccc" d="M58 16h1" />
<path stroke="#939393" d="M60 16h1" />
<path stroke="#555555" d="M62 16h1M82 25h1" />
<path stroke="#5e5e5e" d="M64 16h1M58 28h1M92 28h1" />
<path stroke="#fafafa" d="M65 16h1M60 18h1M72 25h1" />
<path stroke="#848484" d="M74 16h1" />
<path stroke="#bdbdbd" d="M77 16h1M78 23h1M88 26h1" />
<path stroke="#f9f9f9" d="M78 16h1" />
<path stroke="#2d2d2d" d="M79 16h1" />
<path stroke="#282828" d="M80 16h1M65 26h1" />
<path stroke="#ededed" d="M81 16h1" />
<path stroke="#7b7b7b" d="M58 17h1" />
<path stroke="#d5d5d5" d="M60 17h1" />
<path stroke="#a2a2a2" d="M62 17h1" />
<path stroke="#191919" d="M64 17h1" />
<path stroke="#333333" d="M75 17h1" />
<path stroke="#4e4e4e" d="M77 17h1M63 19h1M53 28h1" />
<path stroke="#737373" d="M78 17h1" />
<path stroke="#bbbbbb" d="M80 17h1M64 27h1" />
<path stroke="#aaaaaa" d="M65 18h1M63 28h1M52 32h1M70 32h1M59 33h1M76 33h1M81 33h1M70 34h1M75 34h1M16 35h1M19 35h2M22 35h1M58 35h1M83 35h1M13 36h1M26 36h1M32 36h1M53 36h1M70 36h1M75 36h1M15 37h1M28 37h1M31 37h1M33 37h1M54 37h1M59 37h1M85 37h1M15 38h1M20 38h1M29 38h1M33 38h1M70 38h1M83 38h1M114 38h1M18 39h1M21 39h1M102 39h1M107 39h1M111 39h1M22 40h1M117 40h1M120 40h2M126 40h1" />
<path stroke="#c1c1c1" d="M75 18h1" />
<path stroke="#6d6d6d" d="M79 18h1M45 27h1" />
<path stroke="#b0b0b0" d="M57 19h1" />
<path stroke="#a9a9a9" d="M59 19h1M48 25h1" />
<path stroke="#dddddd" d="M79 19h1M56 21h1M62 34h1M55 35h1M76 35h1M80 35h1M33 36h1M51 36h1M62 36h1M17 37h1M22 37h1M103 37h1M110 37h1M113 37h2M100 38h1M106 38h1M121 38h1M15 39h1M33 39h1M13 40h1M17 40h1M31 40h1M112 40h1M119 40h1M127 40h1M103 41h1M110 41h1M116 41h1" />
<path stroke="#4c4c4c" d="M57 20h1" />
<path stroke="#222222" d="M58 20h1" />
<path stroke="#9f9f9f" d="M63 20h1" />
<path stroke="#696969" d="M79 20h1M66 22h1" />
<path stroke="#262626" d="M58 21h1" />
<path stroke="#9e9e9e" d="M60 21h3M64 24h1" />
<path stroke="#717171" d="M63 21h1" />
<path stroke="#bcbcbc" d="M66 21h1" />
<path stroke="#cbcbcb" d="M75 21h1M50 28h1" />
<path stroke="#313131" d="M77 21h1M56 23h1" />
<path stroke="#b9b9b9" d="M80 21h1" />
<path stroke="#828282" d="M56 22h1" />
<path stroke="#f8f8f8" d="M74 22h1M67 23h1" />
<path stroke="#373737" d="M76 22h1" />
<path stroke="#e7e7e7" d="M77 22h1M79 25h1M57 26h1" />
<path stroke="#4d4d4d" d="M78 22h1" />
<path stroke="#c9c9c9" d="M58 23h6" />
<path stroke="#545454" d="M64 23h1" />
<path stroke="#272727" d="M66 23h1M59 32h1M55 33h1M70 33h1M83 33h1M51 34h1M54 35h1M81 35h1M34 36h1M13 37h2M18 37h1M30 37h1M34 37h1M70 37h1M80 37h1M12 38h1M22 38h1M27 38h1M30 38h1M34 38h1M69 38h1M101 38h1M113 38h1M13 39h1M17 39h1M31 39h1M34 39h1" />
<path stroke="#878787" d="M74 23h1M71 27h1" />
<path stroke="#bababa" d="M55 24h1" />
<path stroke="#6b6b6b" d="M57 24h1M18 36h1M71 36h1M27 37h1M14 38h1M16 38h1M21 38h1M32 38h1M116 38h1M125 38h1M20 39h1M101 39h1M104 39h1M109 39h1M116 39h1M120 39h1M125 39h1M101 40h1M125 40h1" />
<path stroke="#cdcdcd" d="M73 24h1" />
<path stroke="#181818" d="M81 24h1M80 28h1" />
<path stroke="#d4d4d4" d="M45 25h1" />
<path stroke="#727272" d="M55 25h1" />
<path stroke="#161616" d="M65 25h1" />
<path stroke="#7d7d7d" d="M67 25h1M74 27h1M62 32h1M58 34h1M13 35h1M52 35h1M84 35h1M31 36h1M57 36h2M12 37h1M16 37h1M20 37h1M62 38h1M30 39h1M106 39h1M114 39h1M106 40h1M114 40h1" />
<path stroke="#494949" d="M73 25h1" />
<path stroke="#121212" d="M80 25h1" />
<path stroke="#d0d0d0" d="M88 25h1" />
<path stroke="#979797" d="M48 26h1" />
<path stroke="#dcdcdc" d="M54 26h1M49 27h1" />
<path stroke="#ececec" d="M64 26h1M53 27h1" />
<path stroke="#2e2e2e" d="M67 26h1" />
<path stroke="#f2f2f2" d="M68 26h1" />
<path stroke="#919191" d="M72 26h1M79 28h1" />
<path stroke="#8b8b8b" d="M74 26h1M57 27h1" />
<path stroke="#909090" d="M80 26h1M80 27h1" />
<path stroke="#343434" d="M48 27h1" />
<path stroke="#4b4b4b" d="M54 27h1" />
<path stroke="#787878" d="M68 27h1" />
<path stroke="#a8a8a8" d="M84 27h1" />
<path stroke="#676767" d="M88 27h1" />
<path stroke="#565656" d="M44 28h1" />
<path stroke="#323232" d="M49 28h1" />
<path stroke="#040404" d="M72 28h1M83 28h1" />
<path stroke="#adadad" d="M75 28h1" />
<path stroke="#1c1c1c" d="M84 28h1" />
<path stroke="#c3c3c3" d="M85 28h1" />
<path stroke="#424242" d="M54 32h1M76 32h1M51 33h1M74 33h1M74 34h1M57 35h1M71 35h1M12 36h1M16 36h1M19 36h2M74 36h1M76 36h1M32 37h1M74 37h1M77 37h1M18 38h1M28 38h1M59 38h1M14 39h1M16 39h1M22 39h1M32 39h1M116 40h1" />
<path stroke="#e9e9e9" d="M72 32h1M79 32h2M61 33h1M65 33h1M67 33h1M65 34h1M67 34h1M18 35h1M21 35h1M65 35h1M67 35h1M65 36h1M67 36h1M77 36h1M61 37h1M65 37h1M67 37h1M123 37h1M72 38h1M112 39h1M34 40h1M111 41h1M113 41h1M124 41h2" />
<path stroke="#8c8c8c" d="M75 32h1M84 32h1M54 34h1M17 35h1M19 37h1M29 37h1M76 37h1M75 38h1M103 38h1M110 38h1M124 38h1M121 39h1M124 39h1M103 40h1M107 40h1M110 40h1M113 40h1M124 40h1" />
<path stroke="#c4c4c4" d="M57 33h1M52 34h1M64 34h1M82 34h1M84 34h1M22 36h1M64 36h1M57 37h1M81 37h1M13 38h1M23 38h1M102 38h1M111 38h1M102 40h1M111 40h1M112 41h1" />
<path stroke="#9b9b9b" d="M55 34h1M14 35h1M34 35h1M51 35h1M17 36h1M21 36h1M29 36h1M80 36h1M104 38h1M109 38h1M12 39h1M27 39h1M36 39h1M113 39h1M123 39h1M104 40h1M109 40h1M123 40h1" />
</svg>
