<svg xmlns="http://www.w3.org/2000/svg" viewBox="0 -0.5 44 85" width="78" height="150" shape-rendering="crispEdges">
<path stroke="#000000" d="M13 0h20M12 1h2M22 1h2M32 1h2M11 2h2M22 2h2M33 2h2M10 3h2M22 3h2M34 3h2M10 4h1M21 4h3M35 4h1M10 5h1M21 5h2M35 5h1M10 6h1M20 6h3M35 6h1M10 7h1M19 7h3M35 7h1M10 8h27M10 9h28M10 10h29M10 11h2M18 11h2M34 11h2M10 12h2M18 12h2M34 12h2M10 13h2M18 13h2M34 13h2M10 14h2M18 14h2M34 14h2M10 15h2M18 15h2M25 15h3M34 15h2M10 16h2M18 16h2M25 16h3M34 16h2M10 17h2M17 17h4M25 17h3M32 17h2M10 18h2M17 18h4M25 18h3M32 18h2M10 19h2M17 19h4M25 19h3M32 19h2M10 20h2M17 20h4M25 20h3M32 20h2M11 21h3M17 21h4M25 21h3M34 21h2M12 22h2M17 22h4M34 22h2M12 23h2M17 23h1M20 23h1M34 23h2M12 24h2M34 24h2M14 25h2M32 25h2M14 26h2M32 26h2M14 27h2M30 27h2M14 28h2M30 28h2M12 29h4M22 29h8M12 30h7M22 30h8M10 31h16M10 32h16M10 33h18M10 34h18M10 35h18M10 36h7M18 36h10M10 37h6M17 37h13M10 38h5M16 38h1M18 38h1M20 38h10M8 39h10M19 39h11M8 40h9M18 40h3M22 40h8M8 41h12M21 41h9M8 42h11M20 42h3M24 42h6M8 43h14M23 43h1M25 43h9M8 44h12M22 44h3M26 44h4M33 44h1M8 45h14M23 45h1M25 45h5M33 45h3M8 46h15M24 46h4M35 46h1M6 47h3M11 47h17M35 47h1M6 48h1M11 48h16M35 48h1M6 49h1M11 49h16M35 49h3M6 50h1M11 50h15M37 50h1M6 51h1M11 51h15M37 51h1M6 52h3M11 52h14M35 52h3M8 53h1M11 53h14M35 53h1M8 54h21M33 54h3M10 55h19M33 55h1M10 56h24M10 57h20M10 58h20M10 59h15M27 59h5M10 60h16M28 60h4M8 61h16M28 61h4M8 62h15M25 62h2M28 62h4M8 63h14M23 63h11M8 64h19M29 64h5M6 65h20M30 65h4M6 66h19M27 66h2M30 66h4M6 67h12M22 67h3M26 67h3M30 67h4M6 68h12M22 68h3M27 68h1M30 68h4M4 69h12M22 69h4M29 69h1M31 69h1M33 69h3M4 70h12M22 70h7M33 70h3M2 71h12M24 71h4M31 71h1M33 71h9M2 72h12M24 72h4M31 72h1M34 72h8M0 73h12M26 73h2M29 73h2M34 73h10M0 74h12M26 74h5M32 74h12M0 75h14M26 75h5M32 75h12M0 76h14M26 76h5M32 76h12M2 77h14M28 77h16M2 78h14M28 78h16M4 79h12M28 79h12M4 80h12M28 80h12M6 81h8M28 81h10M6 82h8M28 82h10M28 83h6M28 84h6" />
<path stroke="#ffffff" d="M14 1h8M24 1h8M13 2h9M24 2h9M12 3h10M24 3h10M11 4h10M24 4h11M11 5h10M23 5h12M11 6h9M23 6h12M11 7h8M22 7h13M12 11h6M20 11h14M12 12h6M20 12h14M12 13h6M20 13h14M12 14h6M20 14h14M12 15h6M20 15h5M28 15h6M12 16h6M20 16h5M28 16h6M12 17h5M21 17h4M28 17h4M12 18h5M21 18h4M28 18h4M12 19h5M21 19h4M28 19h4M12 20h5M21 20h4M28 20h4M14 21h3M21 21h4M28 21h6M14 22h3M21 22h5M28 22h6M14 23h3M18 23h2M21 23h13M14 24h20M16 25h16M16 26h16M16 27h14M16 28h14M16 29h6M19 30h3M30 44h3M30 45h3M28 46h7M9 47h2M28 47h7M7 48h4M27 48h8M7 49h4M27 49h8M7 50h4M26 50h11M7 51h4M26 51h11M9 52h2M25 52h10M9 53h2M25 53h10M29 54h4M29 55h4" />
<path stroke="#d6effa" d="M26 22h2" />
<path stroke="#fdf9ed" d="M17 36h1M16 37h1M15 38h1M17 38h1M19 38h1M18 39h1M17 40h1M21 40h1M20 41h1M19 42h1M23 42h1M22 43h1M24 43h1M20 44h2M25 44h1M22 45h1M24 45h1M23 46h1M25 59h2M26 60h2M24 61h4M23 62h2M27 62h1M22 63h1M27 64h2M26 65h4M25 66h2M29 66h1M25 67h1M29 67h1M25 68h2M28 68h2M26 69h3M31 70h1M30 71h1M32 71h1M29 72h2M32 72h2M31 73h3M31 74h1M31 75h1M31 76h1" />
<path stroke="#020202" d="M30 69h1" />
<path stroke="#050504" d="M32 69h1" />
<path stroke="#2a2a28" d="M29 70h1" />
<path stroke="#f5f0e5" d="M30 70h1" />
<path stroke="#f1ede1" d="M32 70h1" />
<path stroke="#21201d" d="M28 71h1" />
<path stroke="#d0ccc2" d="M29 71h1" />
<path stroke="#d8d5cb" d="M28 72h1" />
<path stroke="#fcf8ec" d="M28 73h1" />
</svg>
