<svg xmlns="http://www.w3.org/2000/svg" viewBox="0 -0.5 43 85" width="76" height="150" shape-rendering="crispEdges">
<path stroke="#000000" d="M14 0h20M13 1h2M23 1h2M33 1h2M12 2h2M23 2h2M34 2h2M11 3h2M23 3h2M35 3h2M11 4h1M22 4h3M36 4h1M11 5h1M22 5h2M36 5h1M11 6h1M21 6h3M36 6h1M11 7h1M20 7h3M36 7h1M11 8h27M11 9h28M11 10h29M11 11h2M19 11h2M35 11h2M11 12h2M19 12h2M35 12h2M11 13h2M19 13h2M35 13h2M11 14h2M19 14h2M35 14h2M11 15h2M19 15h2M26 15h3M35 15h2M11 16h2M19 16h2M26 16h3M35 16h2M11 17h2M18 17h4M26 17h3M33 17h2M11 18h2M18 18h4M26 18h3M33 18h2M11 19h2M18 19h4M26 19h3M33 19h2M11 20h2M18 20h4M26 20h3M33 20h2M12 21h3M18 21h4M26 21h3M35 21h2M13 22h2M18 22h4M35 22h2M13 23h2M18 23h1M21 23h1M35 23h2M13 24h2M35 24h2M15 25h2M33 25h2M15 26h2M33 26h2M15 27h2M31 27h2M14 28h3M31 28h2M12 29h5M23 29h8M12 30h8M23 30h8M10 31h17M10 32h5M17 32h10M10 33h7M19 33h10M10 34h8M21 34h8M8 35h5M15 35h2M18 35h11M8 36h7M17 36h12M8 37h4M14 37h3M19 37h12M8 38h6M16 38h15M6 39h4M11 39h5M18 39h13M6 40h4M14 40h17M6 41h4M11 41h2M15 41h16M6 42h3M10 42h3M14 42h19M6 43h3M10 43h3M14 43h19M6 44h4M14 44h19M6 45h27M4 46h31M4 47h1M13 47h19M34 47h1M4 48h1M13 48h19M34 48h3M4 49h1M15 49h17M36 49h1M4 50h1M15 50h17M36 50h1M4 51h1M15 51h17M36 51h1M4 52h1M15 52h17M36 52h1M4 53h1M15 53h17M34 53h3M4 54h1M15 54h17M34 54h1M4 55h3M13 55h22M6 56h1M13 56h18M6 57h3M11 57h20M8 58h1M11 58h20M8 59h23M10 60h21M10 61h21M8 62h25M8 63h25M8 64h2M12 64h3M16 64h17M8 65h3M16 65h17M6 66h8M15 66h18M6 67h3M10 67h3M15 67h18M6 68h2M12 68h6M22 68h13M6 69h2M9 69h2M13 69h5M22 69h13M4 70h4M13 70h3M25 70h16M4 71h2M7 71h3M12 71h4M25 71h16M2 72h5M9 72h5M25 72h18M2 73h2M7 73h2M10 73h4M25 73h18M2 74h4M7 74h2M10 74h4M25 74h18M0 75h7M9 75h3M27 75h16M0 76h12M27 76h16M0 77h14M27 77h16M0 78h14M27 78h16M2 79h14M29 79h10M2 80h14M29 80h10M4 81h12M29 81h8M4 82h12M29 82h8M6 83h8M6 84h8" />
<path stroke="#ffffff" d="M15 1h8M25 1h8M14 2h9M25 2h9M13 3h10M25 3h10M12 4h10M25 4h11M12 5h10M24 5h12M12 6h9M24 6h12M12 7h8M23 7h13M13 11h6M21 11h14M13 12h6M21 12h14M13 13h6M21 13h14M13 14h6M21 14h14M13 15h6M21 15h5M29 15h6M13 16h6M21 16h5M29 16h6M13 17h5M22 17h4M29 17h4M13 18h5M22 18h4M29 18h4M13 19h5M22 19h4M29 19h4M13 20h5M22 20h4M29 20h4M15 21h3M22 21h4M29 21h6M15 22h3M22 22h5M29 22h6M15 23h3M19 23h2M22 23h13M15 24h20M17 25h16M17 26h16M17 27h14M17 28h14M17 29h6M20 30h3M5 47h8M32 47h2M5 48h8M32 48h2M5 49h10M32 49h4M5 50h10M32 50h4M5 51h10M32 51h4M5 52h10M32 52h4M5 53h10M32 53h2M5 54h10M32 54h2M7 55h6M7 56h6M9 57h2M9 58h2" />
<path stroke="#d6effa" d="M27 22h2" />
<path stroke="#fdf9ed" d="M15 32h2M17 33h2M18 34h3M13 35h2M17 35h1M15 36h2M12 37h2M17 37h2M14 38h2M10 39h1M16 39h2M10 40h4M10 41h1M13 41h2M9 42h1M13 42h1M9 43h1M13 43h1M10 44h4M10 64h2M15 64h1M11 65h5M14 66h1M9 67h1M13 67h2M8 68h4M8 69h1M11 69h2M8 70h5M6 71h1M10 71h2M7 72h2M4 73h3M9 73h1M6 74h1M9 74h1M7 75h2" />
</svg>
