<svg viewBox="0 0 111 27" fill="none" xmlns="http://www.w3.org/2000/svg" height="100%" width="100%">
    <path
        d="M0.109842 21.1C0.109842 19.2947 0.714003 17.9155 1.92232 16.9622C3.13063 16.0089 4.78442 15.5329 6.88372 15.5341C7.88414 15.5251 8.88138 15.6482 9.84958 15.9003L11.3874 16.2665V15.1679C11.3874 14.1915 11.0701 13.4286 10.4354 12.8793C9.80076 12.3301 8.93419 12.0554 7.83572 12.0554C5.76084 12.0554 4.50371 13.0197 4.06433 14.9482L0 13.8497C0.402446 12.2308 1.36983 10.8088 2.72785 9.84006C4.08262 8.87702 5.79746 8.39488 7.87234 8.39366C10.4842 8.39366 12.4676 8.99176 13.8224 10.1879C15.1771 11.3841 15.8545 13.1295 15.8545 15.4243V26.1166H11.5705V23.4435C10.4232 25.4709 8.50701 26.484 5.82187 26.4828C4.34056 26.5127 2.90241 25.9832 1.79416 24.9998C0.672503 24.0111 0.111063 22.7112 0.109842 21.1ZM11.3874 19.7085V19.562L10.3256 19.2325C9.17829 18.8919 8.27511 18.7211 7.61603 18.7198C5.78525 18.7198 4.86986 19.4156 4.86986 20.8071C4.86986 22.1985 5.80966 22.8943 7.68926 22.8943C8.78773 22.8943 9.6787 22.6135 10.3622 22.0521C11.0457 21.4906 11.3874 20.7094 11.3874 19.7085Z"
        fill="#313237"></path>
    <path d="M34.2904 0.484386V5.06159H25.2464V26.1167H20.3033V5.06159H11.2227V0.484386H34.2904Z" fill="#313237"></path>
    <path
        d="M29.6767 21.1C29.6767 19.2947 30.2809 17.9155 31.4892 16.9622C32.6975 16.0089 34.3513 15.5329 36.4506 15.5341C37.451 15.5251 38.4483 15.6482 39.4165 15.9003L40.9543 16.2665V15.1679C40.9543 14.1915 40.637 13.4286 40.0023 12.8793C39.3677 12.3301 38.5011 12.0554 37.4026 12.0554C35.3277 12.0554 34.0706 13.0197 33.6312 14.9482L29.5669 13.8497C29.9693 12.2308 30.9367 10.8088 32.2947 9.84006C33.6495 8.87702 35.3644 8.39488 37.4392 8.39366C40.0511 8.39366 42.0345 8.99176 43.3893 10.1879C44.744 11.3841 45.4214 13.1295 45.4214 15.4243V26.1166H41.1374V23.4435C39.9901 25.4709 38.0739 26.484 35.3888 26.4828C33.9075 26.5127 32.4693 25.9832 31.3611 24.9998C30.2394 24.0111 29.678 22.7112 29.6767 21.1ZM40.9543 19.7085V19.562L39.8925 19.2325C38.7452 18.8919 37.842 18.7211 37.1829 18.7198C35.3521 18.7198 34.4368 19.4156 34.4368 20.8071C34.4368 22.1985 35.3766 22.8943 37.2562 22.8943C38.3546 22.8943 39.2456 22.6135 39.9291 22.0521C40.6126 21.4906 40.9543 20.7094 40.9543 19.7085Z"
        fill="#313237"></path>
    <path d="M49.1543 26.1167V0.484386H53.8411V26.1167H49.1543Z" fill="#313237"></path>
    <path
        d="M69.8808 19.4888L73.8719 21.0634C73.3287 22.6833 72.2752 24.0837 70.8694 25.0547C69.478 26.0068 67.7815 26.4828 65.7799 26.4828C63.0703 26.4828 60.8612 25.6406 59.1524 23.9562C57.4437 22.2718 56.5894 20.0625 56.5894 17.3284C56.5894 14.814 57.401 12.6962 59.0243 10.9752C60.6476 9.25418 62.7164 8.39366 65.2306 8.39366C67.6473 8.39366 69.594 9.10161 71.0708 10.5175C72.5476 11.9334 73.286 13.8253 73.286 16.1932C73.2906 16.9071 73.2169 17.6193 73.0663 18.317H61.2762C61.2993 19.5877 61.7448 20.5947 62.6126 21.338C63.4804 22.0813 64.5606 22.4536 65.8531 22.4549C67.9768 22.4549 69.3194 21.4662 69.8808 19.4888ZM61.2762 15.2045H68.7091L68.7457 15.0581C68.7598 14.6557 68.6793 14.2557 68.5108 13.89C68.3423 13.5243 68.0904 13.2033 67.7754 12.9526C67.1273 12.4289 66.279 12.1665 65.2306 12.1653C64.3138 12.1455 63.4171 12.4358 62.6858 12.9892C61.967 13.536 61.4671 14.3217 61.2762 15.2045Z"
        fill="#313237"></path>
    <path
        d="M81.0852 26.1166H76.3984V8.75984H81.0852V11.0301C82.2313 9.27249 83.9888 8.39366 86.3579 8.39366C88.2619 8.39366 89.7814 8.96124 90.9165 10.0964C92.0516 11.2315 92.6191 12.7878 92.6191 14.7651V26.1166H87.9323V16.0468C87.9323 14.8518 87.6394 13.9119 87.0536 13.2272C86.4677 12.5424 85.6744 12.2007 84.6735 12.2019C84.1812 12.185 83.6914 12.2801 83.2411 12.4799C82.7908 12.6797 82.3917 12.979 82.0738 13.3554C81.4148 14.1243 81.0852 15.1801 81.0852 16.5228V26.1166Z"
        fill="#313237"></path>
    <path
        d="M98.0014 20.258V12.6049H94.4131V8.76H98.0014V3.04765H102.652V8.76H109.169V12.6049H102.652V20.258C102.652 20.9171 102.835 21.4297 103.201 21.7959C103.389 21.9799 103.613 22.1235 103.858 22.218C104.104 22.3124 104.366 22.3557 104.629 22.3451C105.849 22.3451 106.533 21.5396 106.679 19.9284L111 20.734C110.756 22.5649 110.072 23.9807 108.949 24.9816C107.827 25.9825 106.35 26.483 104.519 26.483C102.444 26.483 100.839 25.9276 99.704 24.8168C98.5689 23.7061 98.0014 22.1865 98.0014 20.258Z"
        fill="#313237"></path>
</svg>