<svg width="177" height="36" viewBox="0 0 177 36" fill="currentColor" xmlns="http://www.w3.org/2000/svg"><path d="M29.7571 35.4943H21.2257L12.1258 22.1107H7.69748V35.4943H0V0H13.3987C22.1449 0 26.769 3.70114 26.769 10.7001C26.769 15.3785 24.2011 19.0703 19.8865 20.6153L29.7571 35.4943ZM7.69748 15.9183H12.4164C16.8416 15.9183 18.8126 14.4199 18.8126 11.0538C18.8126 7.6877 16.8384 6.18925 12.4164 6.18925H7.69748V15.9152V15.9183Z" fill="currentColor"></path><path d="M42.2734 35.9998C34.1179 35.9998 29.0547 30.9274 29.0547 22.765C29.0547 14.6027 34.14 9.53027 42.3271 9.53027C50.5141 9.53027 55.3405 14.2986 55.3405 22.613V24.9491H36.4521C36.6574 27.7133 38.5431 30.6202 42.2765 30.6202C44.955 30.6202 46.8375 29.37 47.444 27.1859L47.4756 27.0711H55.0151L54.9772 27.2573C53.8622 32.733 49.1149 35.9998 42.2765 35.9998H42.2734ZM36.5184 19.9729H47.9431C47.722 16.8643 45.4983 14.705 42.4819 14.705C38.9411 14.705 36.9543 17.3203 36.5184 19.9729Z" fill="currentColor"></path><path d="M67.0963 35.9998C61.7235 35.9998 58.1133 32.9625 58.1133 28.4424C58.1133 24.2262 61.1487 21.3814 66.6573 20.432L75.2044 18.8839V18.4062C75.2044 15.8839 73.6757 14.6058 70.6624 14.6058C67.927 14.6058 66.5467 15.673 66.3256 17.9625L66.313 18.1021H59.0356L59.0451 17.9408C59.3041 12.5179 63.4323 9.53027 70.6655 9.53027C78.6283 9.53027 82.3365 12.7195 82.3365 19.5696V35.491H75.6719V31.9077C73.7894 34.6223 70.9087 35.9967 67.0995 35.9967L67.0963 35.9998ZM75.2044 23.916L69.0357 25.098C66.1551 25.5696 65.0874 26.3948 65.0874 28.1383C65.0874 29.7547 66.553 30.7195 69.0073 30.7195C71.9921 30.7195 75.2044 28.8953 75.2044 24.8933V23.916Z" fill="currentColor"></path><path d="M113.053 35.4943H104.361L104.314 35.4261L96.992 24.8873L93.7134 28.2037V35.4943H86.4297V0H93.7134V20.1065L103.865 10.0362H112.564L102.482 20.1965L113.053 35.4912V35.4943Z" fill="currentColor"></path><path d="M122.972 35.7984C117.511 35.7984 114.965 33.1241 114.965 27.3785V15.8191L115.015 10.1913V3.70117H122.249V10.0393H128.705V15.9773H122.249V25.8087C122.249 28.6164 123.19 29.7084 125.6 29.7084C126.639 29.7084 127.536 29.5502 128.515 29.3579L128.705 29.3206V35.2617L128.578 35.2865C127.043 35.606 124.949 35.7953 122.972 35.7953V35.7984Z" fill="currentColor"></path><path d="M144.134 35.9998C135.852 35.9998 130.707 30.9274 130.707 22.765C130.707 14.6027 135.852 9.53027 144.134 9.53027C152.416 9.53027 157.612 14.6027 157.612 22.765C157.612 30.9274 152.448 35.9998 144.134 35.9998ZM144.134 15.0618C139.832 15.0618 138.3 19.0422 138.3 22.765C138.3 26.4879 139.832 30.4682 144.134 30.4682C148.436 30.4682 150.019 26.4879 150.019 22.765C150.019 19.0422 148.474 15.0618 144.134 15.0618Z" fill="currentColor"></path><path d="M167.381 35.4946H160.098V10.0395H167.072V14.7086C168.632 11.1719 171.26 9.5835 175.486 9.5835H176.573V16.4429L176.405 16.4336C175.546 16.3839 174.659 16.3312 173.73 16.3312C169.697 16.3312 167.381 18.8255 167.381 23.1719V35.4946Z" fill="currentColor"></path></svg>
