<?xml version="1.0" encoding="UTF-8" standalone="no"?>
<!-- Created with Inkscape (http://www.inkscape.org/) -->

<svg
   width="1078.9375"
   height="1079.9375"
   id="svg2"
   version="1.0"
   xmlns="http://www.w3.org/2000/svg"
   xmlns:svg="http://www.w3.org/2000/svg"
   xmlns:rdf="http://www.w3.org/1999/02/22-rdf-syntax-ns#"
   xmlns:cc="http://creativecommons.org/ns#"
   xmlns:dc="http://purl.org/dc/elements/1.1/">
  <defs
     id="defs4" />
  <metadata
     id="metadata7">
    <rdf:RDF>
      <cc:Work
         rdf:about="">
        <dc:format>image/svg+xml</dc:format>
        <dc:type
           rdf:resource="http://purl.org/dc/dcmitype/StillImage" />
      </cc:Work>
    </rdf:RDF>
  </metadata>
  <g
     id="layer1"
     transform="translate(-1435.321,426.1869)">
    <g
       id="g1888"
       transform="translate(737.9068,-338.2405)">
      <path
         id="path2833"
         d="M 1296.9769,-87.9464 L 1291.1956,-38.91515 C 1274.2712,-40.674387 1257.0756,-41.5714 1239.6956,-41.5714 C 1189.5091,-41.5714 1141.0418,-34.073381 1095.3519,-20.10265 L 1080.1019,-69.22765 C 1049.0166,-58.42742 1017.9281,-44.280695 986.85187,-29.72765 C 953.14377,-14.694428 923.53727,5.600848 896.50807,29.1786 L 928.25807,69.0536 C 875.24397,112.109 831.29167,165.89705 799.69557,227.0536 L 801.10187,223.5536 L 801.22687,223.27235 L 801.41437,222.89735 L 755.53937,199.33485 C 741.50557,229.10052 729.88557,261.2311 718.53937,293.6161 C 705.69467,328.21739 699.48117,363.55804 697.41437,399.3661 L 747.19557,404.4911 C 745.61307,420.55703 744.78937,436.86176 744.78937,453.33485 C 744.78937,503.05569 752.19187,551.08022 765.91437,596.39735 L 717.88307,611.6161 C 728.87137,642.63546 743.20457,673.62853 757.94557,704.6161 C 773.18267,738.23258 793.67317,767.69892 817.41437,794.58485 L 855.00807,764.27235 C 898.33217,817.75869 952.55357,862.07688 1014.2581,893.8036 L 992.94557,936.9286 C 1022.9217,950.5072 1055.204,961.6396 1087.7581,972.4911 C 1122.5511,984.807 1157.9852,990.47 1193.8206,991.9911 L 1197.8206,946.4599 C 1211.6339,947.6244 1225.5877,948.2411 1239.6956,948.2411 C 1291.8888,948.2411 1342.2244,940.0865 1389.5081,925.02235 L 1403.8831,968.6474 C 1434.7743,957.3036 1465.5981,942.5869 1496.4144,927.4911 C 1529.8537,911.869 1559.084,891.0705 1585.6956,867.02235 L 1557.2581,832.5536 C 1604.5449,792.8858 1644.3294,744.56421 1674.1644,690.0536 L 1714.4144,711.6786 C 1729.013,682.18581 1741.2653,650.31023 1753.2269,618.14735 C 1766.7287,583.79711 1773.6028,548.59702 1776.3519,512.83485 L 1731.6644,507.3661 C 1733.6035,489.6128 1734.6019,471.59336 1734.6019,453.33485 C 1734.6019,406.72464 1728.1243,361.60096 1716.0081,318.8036 L 1759.1019,306.77235 C 1749.1908,275.3922 1735.9208,243.90648 1722.2581,212.4286 C 1708.1903,178.30625 1688.7445,148.14916 1665.9456,120.45985 L 1629.0081,148.1786 C 1586.7252,94.36548 1533.5261,49.50559 1472.8206,16.9286 L 1496.1331,-26.8839 C 1466.5774,-41.354576 1434.6287,-53.468141 1402.4144,-65.29015 C 1368.006,-78.643043 1332.7506,-85.352344 1296.9769,-87.9464 z M 1011.6019,14.2411 C 1010.9646,14.573664 1010.3312,14.905841 1009.6956,15.2411 L 1010.4769,14.70985 L 1011.6019,14.2411 z M 1239.6956,33.7411 C 1377.5741,33.7411 1499.7448,99.96102 1576.1956,202.39735 C 1606.0706,202.39734 1635.9456,202.39735 1665.8206,202.39735 C 1649.3601,224.33911 1632.9038,246.27429 1616.4769,268.2411 C 1643.8958,324.04659 1659.2894,386.86867 1659.2894,453.33485 C 1659.2894,541.72326 1632.0659,623.66748 1585.5394,691.2411 L 1458.6019,446.27235 L 1630.2894,219.9911 L 1516.2894,219.9911 L 1344.6644,446.20985 L 1378.1019,219.39735 L 891.16437,219.39735 C 966.43917,107.35799 1094.339,33.7411 1239.6956,33.7411 z M 888.78937,222.9286 L 819.47687,692.7411 L 1308.2894,692.7411 L 1344.6331,446.33485 L 1472.3206,692.7411 L 1584.5081,692.7411 C 1508.7814,801.71158 1382.6821,872.9286 1239.6956,872.9286 C 1105.0432,872.92862 985.36887,809.76632 908.63307,711.39735 L 798.41437,711.39735 C 803.38897,677.28969 815.68257,594.62336 826.10187,524.3036 C 822.18627,501.237 820.10187,477.5331 820.10187,453.33485 C 820.10187,368.1931 845.34847,289.02623 888.78937,222.9286 z M 979.22687,280.33485 C 984.50367,280.2821 990.05407,280.51693 995.88307,280.95985 C 1100.391,280.95985 1329.1956,280.95985 1329.1956,280.95985 C 1330.5079,294.46775 1325.7759,321.10354 1312.4769,333.8661 C 1300.1744,345.67205 1288.3476,349.36357 1245.6644,350.7411 C 1245.6643,339.23115 1238.099,322.9911 1215.9144,322.9911 C 1193.0414,322.9911 1194.6489,322.9911 1172.3206,322.9911 C 1148.3036,322.9911 1141.9669,338.32641 1139.6644,350.7411 L 1064.1644,350.7411 C 1040.5709,519.63153 1034.4523,567.39784 1002.4144,628.45985 C 990.66587,650.8515 948.29937,656.25665 933.41437,637.7411 C 918.87947,619.66141 920.11187,573.92146 939.97687,552.3036 C 992.09157,495.59013 998.23977,410.97093 1000.2269,350.7411 C 946.40536,349.22588 917.08267,351.80814 914.57057,360.70985 C 901.84187,356.53595 905.91797,324.36827 923.32057,303.95985 C 938.43167,286.2385 956.35997,280.56341 979.22687,280.33485 z M 1193.1019,347.52235 C 1210.7374,347.52233 1225.0394,361.56973 1225.0394,378.8661 C 1225.0391,396.16248 1210.7374,410.20985 1193.1019,410.20985 C 1175.4661,410.20984 1161.1331,396.16247 1161.1331,378.8661 C 1161.1329,361.56974 1175.4662,347.52235 1193.1019,347.52235 z M 1170.8206,432.5536 C 1183.2955,433.28573 1193.9142,435.86223 1203.5081,441.58485 C 1199.5529,465.94503 1196.8205,474.57537 1194.3206,494.27235 C 1188.3355,541.43008 1189.6899,578.30529 1214.1644,590.45985 C 1202.5617,603.10675 1193.0399,612.59772 1183.3519,618.08485 C 1173.6636,623.57199 1165.5694,626.30359 1159.1019,626.3036 C 1142.6101,626.45182 1138.0099,610.59028 1136.4144,595.2411 C 1134.8554,580.24556 1158.86,466.59583 1170.8206,432.5536 z "
         style="opacity:1;fill:#ffffff;fill-opacity:1;fill-rule:evenodd;stroke:none;stroke-width:75;stroke-miterlimit:4;stroke-dasharray:none;stroke-dashoffset:338.27130547;stroke-opacity:1" />
    </g>
  </g>
</svg>
